<svg id="visual" viewBox="0 0 960 540" width="960" height="540" xmlns="http://www.w3.org/2000/svg" xmlns:xlink="http://www.w3.org/1999/xlink" version="1.1"><g stroke-width="1" stroke-linejoin="bevel"><path d="M468 257L456 216L359 250Z" fill="#000c17" stroke="#000c17"></path><path d="M456 216L385 152L359 250Z" fill="#000911" stroke="#000911"></path><path d="M309 211L309 244L359 250Z" fill="#000c17" stroke="#000c17"></path><path d="M385 152L309 211L359 250Z" fill="#000a13" stroke="#000a13"></path><path d="M309 244L386 365L359 250Z" fill="#010d19" stroke="#010d19"></path><path d="M359 250L386 365L468 257Z" fill="#000912" stroke="#000912"></path><path d="M386 365L514 343L468 257Z" fill="#000911" stroke="#000911"></path><path d="M468 257L590 243L456 216Z" fill="#000b16" stroke="#000b16"></path><path d="M504 97L385 152L456 216Z" fill="#000c17" stroke="#000c17"></path><path d="M504 97L402 94L385 152Z" fill="#000c17" stroke="#000c17"></path><path d="M385 152L317 123L309 211Z" fill="#000c17" stroke="#000c17"></path><path d="M402 94L317 123L385 152Z" fill="#000912" stroke="#000912"></path><path d="M465 434L555 356L514 343Z" fill="#000912" stroke="#000912"></path><path d="M514 343L590 243L468 257Z" fill="#000b16" stroke="#000b16"></path><path d="M555 356L590 243L514 343Z" fill="#000810" stroke="#000810"></path><path d="M584 162L504 97L456 216Z" fill="#000810" stroke="#000810"></path><path d="M386 365L465 434L514 343Z" fill="#000b15" stroke="#000b15"></path><path d="M590 243L584 162L456 216Z" fill="#010d19" stroke="#010d19"></path><path d="M309 244L270 394L386 365Z" fill="#000b16" stroke="#000b16"></path><path d="M386 365L359 447L465 434Z" fill="#000c17" stroke="#000c17"></path><path d="M197 270L270 394L309 244Z" fill="#000b15" stroke="#000b15"></path><path d="M197 270L309 244L309 211Z" fill="#000a14" stroke="#000a14"></path><path d="M270 394L359 447L386 365Z" fill="#000c17" stroke="#000c17"></path><path d="M169 175L197 270L309 211Z" fill="#000a13" stroke="#000a13"></path><path d="M584 162L575 101L504 97Z" fill="#000911" stroke="#000911"></path><path d="M197 270L219 393L270 394Z" fill="#000a13" stroke="#000a13"></path><path d="M270 394L251 457L359 447Z" fill="#000c17" stroke="#000c17"></path><path d="M590 243L649 159L584 162Z" fill="#000911" stroke="#000911"></path><path d="M584 162L649 159L575 101Z" fill="#000c17" stroke="#000c17"></path><path d="M686 301L649 159L590 243Z" fill="#000911" stroke="#000911"></path><path d="M402 94L381 0L317 123Z" fill="#000810" stroke="#000810"></path><path d="M317 123L169 175L309 211Z" fill="#000a13" stroke="#000a13"></path><path d="M497 0L381 0L402 94Z" fill="#000810" stroke="#000810"></path><path d="M497 0L402 94L504 97Z" fill="#000b15" stroke="#000b15"></path><path d="M187 52L169 175L317 123Z" fill="#000a14" stroke="#000a14"></path><path d="M197 270L74 346L219 393Z" fill="#000b15" stroke="#000b15"></path><path d="M219 393L251 457L270 394Z" fill="#000b16" stroke="#000b16"></path><path d="M554 0L504 97L575 101Z" fill="#010d19" stroke="#010d19"></path><path d="M554 0L497 0L504 97Z" fill="#000b15" stroke="#000b15"></path><path d="M465 434L543 482L555 356Z" fill="#000a14" stroke="#000a14"></path><path d="M555 356L686 301L590 243Z" fill="#000c17" stroke="#000c17"></path><path d="M510 540L543 482L465 434Z" fill="#000c17" stroke="#000c17"></path><path d="M368 540L465 434L359 447Z" fill="#000912" stroke="#000912"></path><path d="M381 0L297 0L317 123Z" fill="#000911" stroke="#000911"></path><path d="M690 336L686 301L555 356Z" fill="#000810" stroke="#000810"></path><path d="M169 175L127 253L197 270Z" fill="#000810" stroke="#000810"></path><path d="M219 393L171 476L251 457Z" fill="#010d19" stroke="#010d19"></path><path d="M664 0L554 0L575 101Z" fill="#000a14" stroke="#000a14"></path><path d="M647 487L690 336L555 356Z" fill="#000b16" stroke="#000b16"></path><path d="M301 540L368 540L359 447Z" fill="#000a13" stroke="#000a13"></path><path d="M297 0L187 52L317 123Z" fill="#010d19" stroke="#010d19"></path><path d="M169 175L66 201L127 253Z" fill="#000c17" stroke="#000c17"></path><path d="M368 540L510 540L465 434Z" fill="#000a13" stroke="#000a13"></path><path d="M543 482L647 487L555 356Z" fill="#000b15" stroke="#000b15"></path><path d="M251 457L301 540L359 447Z" fill="#000b15" stroke="#000b15"></path><path d="M187 540L301 540L251 457Z" fill="#000b16" stroke="#000b16"></path><path d="M510 540L549 540L543 482Z" fill="#000a14" stroke="#000a14"></path><path d="M771 205L686 66L649 159Z" fill="#000912" stroke="#000912"></path><path d="M649 159L686 66L575 101Z" fill="#000911" stroke="#000911"></path><path d="M771 205L649 159L686 301Z" fill="#000c17" stroke="#000c17"></path><path d="M129 443L171 476L219 393Z" fill="#000a13" stroke="#000a13"></path><path d="M635 540L647 487L543 482Z" fill="#000c17" stroke="#000c17"></path><path d="M297 0L189 0L187 52Z" fill="#000911" stroke="#000911"></path><path d="M187 52L105 85L169 175Z" fill="#010d18" stroke="#010d18"></path><path d="M74 346L129 443L219 393Z" fill="#000b16" stroke="#000b16"></path><path d="M189 0L105 85L187 52Z" fill="#010d18" stroke="#010d18"></path><path d="M127 253L74 346L197 270Z" fill="#000b16" stroke="#000b16"></path><path d="M105 85L66 201L169 175Z" fill="#000b15" stroke="#000b15"></path><path d="M0 275L74 346L127 253Z" fill="#000c17" stroke="#000c17"></path><path d="M686 66L664 0L575 101Z" fill="#000a14" stroke="#000a14"></path><path d="M805 260L686 301L795 361Z" fill="#000a13" stroke="#000a13"></path><path d="M805 260L771 205L686 301Z" fill="#010d19" stroke="#010d19"></path><path d="M686 66L775 0L664 0Z" fill="#010d19" stroke="#010d19"></path><path d="M549 540L635 540L543 482Z" fill="#000c17" stroke="#000c17"></path><path d="M647 487L730 465L690 336Z" fill="#010d18" stroke="#010d18"></path><path d="M64 540L187 540L171 476Z" fill="#000c17" stroke="#000c17"></path><path d="M171 476L187 540L251 457Z" fill="#010d18" stroke="#010d18"></path><path d="M635 540L730 465L647 487Z" fill="#000a13" stroke="#000a13"></path><path d="M795 361L686 301L690 336Z" fill="#000c17" stroke="#000c17"></path><path d="M771 205L800 61L686 66Z" fill="#000810" stroke="#000810"></path><path d="M730 465L795 361L690 336Z" fill="#000911" stroke="#000911"></path><path d="M74 346L0 454L129 443Z" fill="#000a14" stroke="#000a14"></path><path d="M129 443L64 540L171 476Z" fill="#000b16" stroke="#000b16"></path><path d="M66 201L0 275L127 253Z" fill="#000c17" stroke="#000c17"></path><path d="M0 207L0 275L66 201Z" fill="#000a14" stroke="#000a14"></path><path d="M0 90L0 207L66 201Z" fill="#000a13" stroke="#000a13"></path><path d="M0 275L0 362L74 346Z" fill="#000a14" stroke="#000a14"></path><path d="M189 0L64 0L105 85Z" fill="#000c17" stroke="#000c17"></path><path d="M105 85L0 90L66 201Z" fill="#000c17" stroke="#000c17"></path><path d="M849 117L800 61L771 205Z" fill="#000c17" stroke="#000c17"></path><path d="M795 361L844 270L805 260Z" fill="#010d19" stroke="#010d19"></path><path d="M805 260L871 154L771 205Z" fill="#000a13" stroke="#000a13"></path><path d="M800 61L775 0L686 66Z" fill="#000b15" stroke="#000b15"></path><path d="M64 0L0 90L105 85Z" fill="#000810" stroke="#000810"></path><path d="M0 454L64 540L129 443Z" fill="#000912" stroke="#000912"></path><path d="M871 154L849 117L771 205Z" fill="#000a13" stroke="#000a13"></path><path d="M800 61L859 0L775 0Z" fill="#000911" stroke="#000911"></path><path d="M848 473L865 374L795 361Z" fill="#000c17" stroke="#000c17"></path><path d="M795 361L865 374L844 270Z" fill="#000a13" stroke="#000a13"></path><path d="M635 540L771 540L730 465Z" fill="#000912" stroke="#000912"></path><path d="M0 362L0 454L74 346Z" fill="#000b16" stroke="#000b16"></path><path d="M844 270L871 154L805 260Z" fill="#000b15" stroke="#000b15"></path><path d="M848 473L795 361L730 465Z" fill="#000c17" stroke="#000c17"></path><path d="M844 270L960 205L871 154Z" fill="#000a14" stroke="#000a14"></path><path d="M64 0L0 0L0 90Z" fill="#000b15" stroke="#000b15"></path><path d="M771 540L848 473L730 465Z" fill="#000911" stroke="#000911"></path><path d="M0 454L0 540L64 540Z" fill="#010d18" stroke="#010d18"></path><path d="M960 73L859 0L849 117Z" fill="#010d19" stroke="#010d19"></path><path d="M849 117L859 0L800 61Z" fill="#000b16" stroke="#000b16"></path><path d="M771 540L835 540L848 473Z" fill="#000a13" stroke="#000a13"></path><path d="M960 307L960 205L844 270Z" fill="#000810" stroke="#000810"></path><path d="M871 154L960 73L849 117Z" fill="#000b16" stroke="#000b16"></path><path d="M960 307L844 270L865 374Z" fill="#000b15" stroke="#000b15"></path><path d="M960 307L865 374L960 349Z" fill="#000c17" stroke="#000c17"></path><path d="M960 349L865 374L960 470Z" fill="#000a13" stroke="#000a13"></path><path d="M960 470L865 374L848 473Z" fill="#000a13" stroke="#000a13"></path><path d="M960 205L960 73L871 154Z" fill="#000b16" stroke="#000b16"></path><path d="M960 540L960 470L848 473Z" fill="#000b15" stroke="#000b15"></path><path d="M960 73L960 0L859 0Z" fill="#000911" stroke="#000911"></path><path d="M835 540L960 540L848 473Z" fill="#010d19" stroke="#010d19"></path></g></svg>